{
	"asset":{
		"generator":"Khronos glTF Blender I/O v4.4.56",
		"version":"2.0"
	},
	"extensionsUsed":[
		"KHR_materials_variants",
		"KHR_texture_transform",
		"EXT_texture_webp"
	],
	"extensionsRequired":[
		"KHR_texture_transform",
		"EXT_texture_webp"
	],
	"extensions":{
		"KHR_materials_variants":{
			"variants":[
				{
					"name":"Blue Latex"
				},
				{
					"name":"White Polyfoam"
				},
				{
					"name":"Yellow Memory"
				}
			]
		}
	},
	"scene":0,
	"scenes":[
		{
			"name":"Scene",
			"nodes":[
				0,
				1,
				2,
				3,
				4,
				5
			]
		}
	],
	"nodes":[
		{
			"mesh":0,
			"name":"Layer-1",
			"scale":[
				1,
				1.2223215103149414,
				1
			]
		},
		{
			"mesh":1,
			"name":"Layer-3",
			"scale":[
				1,
				1.2223215103149414,
				1
			],
			"translation":[
				0,
				0.30480000376701355,
				0
			]
		},
		{
			"mesh":2,
			"name":"Layer-2",
			"scale":[
				1,
				1.2223215103149414,
				1
			],
			"translation":[
				0,
				0.15240000188350677,
				0
			]
		},
		{
			"mesh":3,
			"name":"Microcoil",
			"scale":[
				0.9039291739463806,
				0.9869728088378906,
				0.9039291739463806
			],
			"translation":[
				0,
				-0.1828799992799759,
				0
			]
		},
		{
			"mesh":4,
			"name":"V7-Base",
			"rotation":[
				0,
				-0.7071068286895752,
				0.7071067690849304,
				5.338509012631221e-08
			],
			"scale":[
				0.7879382371902466,
				0.7382495999336243,
				0.7190154194831848
			],
			"translation":[
				-0.4943164587020874,
				-1.7086071968078613,
				-1.015039324760437
			]
		},
		{
			"mesh":5,
			"name":"V7-Top",
			"rotation":[
				0,
				-0.7071068286895752,
				0.7071067690849304,
				5.338509012631221e-08
			],
			"scale":[
				0.7879382371902466,
				0.7382495999336243,
				0.7190154194831848
			],
			"translation":[
				-0.4943164587020874,
				0.6526123285293579,
				-1.015039324760437
			]
		}
	],
	"animations":[
		{
			"channels":[
				{
					"sampler":0,
					"target":{
						"node":0,
						"path":"translation"
					}
				},
				{
					"sampler":1,
					"target":{
						"node":0,
						"path":"scale"
					}
				}
			],
			"name":"Mattress LayerAction",
			"samplers":[
				{
					"input":45,
					"interpolation":"STEP",
					"output":46
				},
				{
					"input":45,
					"interpolation":"STEP",
					"output":47
				}
			]
		},
		{
			"channels":[
				{
					"sampler":0,
					"target":{
						"node":1,
						"path":"translation"
					}
				},
				{
					"sampler":1,
					"target":{
						"node":1,
						"path":"scale"
					}
				}
			],
			"name":"Mattress LayerAction.002",
			"samplers":[
				{
					"input":48,
					"interpolation":"LINEAR",
					"output":49
				},
				{
					"input":45,
					"interpolation":"STEP",
					"output":50
				}
			]
		},
		{
			"channels":[
				{
					"sampler":0,
					"target":{
						"node":2,
						"path":"translation"
					}
				},
				{
					"sampler":1,
					"target":{
						"node":2,
						"path":"scale"
					}
				}
			],
			"name":"Mattress LayerAction.004",
			"samplers":[
				{
					"input":48,
					"interpolation":"LINEAR",
					"output":51
				},
				{
					"input":45,
					"interpolation":"STEP",
					"output":52
				}
			]
		},
		{
			"channels":[
				{
					"sampler":0,
					"target":{
						"node":3,
						"path":"translation"
					}
				},
				{
					"sampler":1,
					"target":{
						"node":3,
						"path":"scale"
					}
				}
			],
			"name":"MicrocoilAction.001",
			"samplers":[
				{
					"input":48,
					"interpolation":"LINEAR",
					"output":53
				},
				{
					"input":45,
					"interpolation":"STEP",
					"output":54
				}
			]
		},
		{
			"channels":[
				{
					"sampler":0,
					"target":{
						"node":4,
						"path":"translation"
					}
				}
			],
			"name":"V7-BaseAction",
			"samplers":[
				{
					"input":48,
					"interpolation":"LINEAR",
					"output":55
				}
			]
		},
		{
			"channels":[
				{
					"sampler":0,
					"target":{
						"node":5,
						"path":"translation"
					}
				}
			],
			"name":"V7-TopAction",
			"samplers":[
				{
					"input":48,
					"interpolation":"LINEAR",
					"output":56
				}
			]
		}
	],
	"materials":[
		{
			"alphaMode":"BLEND",
			"doubleSided":true,
			"name":"Blue Latex",
			"pbrMetallicRoughness":{
				"baseColorFactor":[
					0.033333420753479004,
					0.5538053512573242,
					1,
					2
				],
				"metallicFactor":0,
				"roughnessFactor":0.796875
			}
		},
		{
			"doubleSided":true,
			"name":"White Polyfoam",
			"pbrMetallicRoughness":{
				"baseColorFactor":[
					0.800000011920929,
					0.800000011920929,
					0.800000011920929,
					1
				],
				"metallicFactor":0,
				"roughnessFactor":0.796999990940094
			}
		},
		{
			"doubleSided":true,
			"name":"Yellow Memory",
			"pbrMetallicRoughness":{
				"baseColorFactor":[
					1,
					0.8852946162223816,
					0.24444526433944702,
					1
				],
				"metallicFactor":0,
				"roughnessFactor":0.7734375
			}
		},
		{
			"doubleSided":true,
			"name":"Spring.001",
			"pbrMetallicRoughness":{
				"baseColorFactor":[
					0.48864972591400146,
					0.48864972591400146,
					0.48864972591400146,
					1
				],
				"metallicFactor":0,
				"roughnessFactor":0
			}
		},
		{
			"doubleSided":true,
			"name":"Microcoil Base.001",
			"pbrMetallicRoughness":{
				"metallicFactor":0,
				"roughnessFactor":0.453125
			}
		},
		{
			"doubleSided":true,
			"name":"Mattress 02",
			"normalTexture":{
				"extensions":{
					"KHR_texture_transform":{
						"offset":[
							0,
							-4
						],
						"scale":[
							3,
							5
						]
					}
				},
				"index":0,
				"texCoord":1
			},
			"pbrMetallicRoughness":{
				"baseColorTexture":{
					"extensions":{
						"KHR_texture_transform":{
							"offset":[
								0,
								-4
							],
							"scale":[
								3,
								5
							]
						}
					},
					"index":1,
					"texCoord":1
				},
				"metallicFactor":0
			}
		},
		{
			"doubleSided":true,
			"name":"V7-Band",
			"pbrMetallicRoughness":{
				"baseColorFactor":[
					0.2842292785644531,
					0.2842292785644531,
					0.2842292785644531,
					1
				],
				"metallicFactor":0,
				"roughnessFactor":0.5
			}
		},
		{
			"doubleSided":true,
			"name":"White",
			"pbrMetallicRoughness":{
				"baseColorFactor":[
					0.800000011920929,
					0.800000011920929,
					0.800000011920929,
					1
				],
				"metallicFactor":0,
				"roughnessFactor":0.5
			}
		},
		{
			"doubleSided":true,
			"name":"SVGMat.001",
			"pbrMetallicRoughness":{
				"baseColorFactor":[
					1,
					1,
					1,
					1
				],
				"metallicFactor":0,
				"roughnessFactor":0.4000000059604645
			}
		},
		{
			"doubleSided":true,
			"name":"V7-Top",
			"normalTexture":{
				"extensions":{
					"KHR_texture_transform":{
						"offset":[
							0.24384009838104248,
							-0.20000004768371582
						],
						"scale":[
							1.600000023841858,
							1.2000000476837158
						]
					}
				},
				"index":2,
				"scale":10,
				"texCoord":1
			},
			"pbrMetallicRoughness":{
				"baseColorTexture":{
					"extensions":{
						"KHR_texture_transform":{
							"offset":[
								0.24384009838104248,
								-0.20000004768371582
							],
							"scale":[
								1.600000023841858,
								1.2000000476837158
							]
						}
					},
					"index":3,
					"texCoord":1
				},
				"metallicFactor":0
			}
		}
	],
	"meshes":[
		{
			"name":"Cube.001",
			"primitives":[
				{
					"attributes":{
						"POSITION":0,
						"NORMAL":1,
						"TEXCOORD_0":2
					},
					"extensions":{
						"KHR_materials_variants":{
							"mappings":[
								{
									"material":0,
									"variants":[
										0
									]
								},
								{
									"material":1,
									"variants":[
										1
									]
								},
								{
									"material":2,
									"variants":[
										2
									]
								}
							]
						}
					},
					"indices":3,
					"material":0
				}
			]
		},
		{
			"name":"Cube.003",
			"primitives":[
				{
					"attributes":{
						"POSITION":4,
						"NORMAL":5,
						"TEXCOORD_0":6,
						"TEXCOORD_1":7
					},
					"extensions":{
						"KHR_materials_variants":{
							"mappings":[
								{
									"material":0,
									"variants":[
										0
									]
								},
								{
									"material":1,
									"variants":[
										1
									]
								},
								{
									"material":2,
									"variants":[
										2
									]
								}
							]
						}
					},
					"indices":8,
					"material":0
				}
			]
		},
		{
			"name":"Cube.005",
			"primitives":[
				{
					"attributes":{
						"POSITION":9,
						"NORMAL":10,
						"TEXCOORD_0":11
					},
					"extensions":{
						"KHR_materials_variants":{
							"mappings":[
								{
									"material":0,
									"variants":[
										0
									]
								},
								{
									"material":1,
									"variants":[
										1
									]
								},
								{
									"material":2,
									"variants":[
										2
									]
								}
							]
						}
					},
					"indices":3,
					"material":0
				}
			]
		},
		{
			"name":"Spiral.001",
			"primitives":[
				{
					"attributes":{
						"POSITION":12,
						"NORMAL":13,
						"TEXCOORD_0":14
					},
					"indices":15,
					"material":3
				},
				{
					"attributes":{
						"POSITION":16,
						"NORMAL":17,
						"TEXCOORD_0":18
					},
					"indices":19,
					"material":4
				}
			]
		},
		{
			"name":"Curve",
			"primitives":[
				{
					"attributes":{
						"POSITION":20,
						"NORMAL":21,
						"TEXCOORD_0":22,
						"TEXCOORD_1":23
					},
					"indices":24,
					"material":5
				},
				{
					"attributes":{
						"POSITION":25,
						"NORMAL":26,
						"TEXCOORD_0":27,
						"TEXCOORD_1":28
					},
					"indices":29,
					"material":6
				},
				{
					"attributes":{
						"POSITION":30,
						"NORMAL":31,
						"TEXCOORD_0":32,
						"TEXCOORD_1":33
					},
					"indices":34,
					"material":7
				},
				{
					"attributes":{
						"POSITION":35,
						"NORMAL":36,
						"TEXCOORD_0":37,
						"TEXCOORD_1":38
					},
					"indices":39,
					"material":8
				}
			]
		},
		{
			"name":"Curve.001",
			"primitives":[
				{
					"attributes":{
						"POSITION":40,
						"NORMAL":41,
						"TEXCOORD_0":42,
						"TEXCOORD_1":43
					},
					"indices":44,
					"material":9
				}
			]
		}
	],
	"textures":[
		{
			"extensions":{
				"EXT_texture_webp":{
					"source":0
				}
			},
			"sampler":0
		},
		{
			"extensions":{
				"EXT_texture_webp":{
					"source":1
				}
			},
			"sampler":0
		},
		{
			"extensions":{
				"EXT_texture_webp":{
					"source":2
				}
			},
			"sampler":0
		},
		{
			"extensions":{
				"EXT_texture_webp":{
					"source":3
				}
			},
			"sampler":0
		}
	],
	"images":[
		{
			"mimeType":"image/webp",
			"name":"v7_normal_side",
			"uri":"v7_normal_side.webp"
		},
		{
			"mimeType":"image/webp",
			"name":"v7_color_side",
			"uri":"v7_color_side.webp"
		},
		{
			"mimeType":"image/webp",
			"name":"v7_normal_top",
			"uri":"v7_normal_top.webp"
		},
		{
			"mimeType":"image/webp",
			"name":"v7_color_top",
			"uri":"v7_color_top.webp"
		}
	],
	"accessors":[
		{
			"bufferView":0,
			"componentType":5126,
			"count":1013,
			"max":[
				0.7564585208892822,
				0.019448451697826385,
				1.0096447467803955
			],
			"min":[
				-0.7564585208892822,
				-0.022111807018518448,
				-1.0096447467803955
			],
			"type":"VEC3"
		},
		{
			"bufferView":1,
			"componentType":5126,
			"count":1013,
			"type":"VEC3"
		},
		{
			"bufferView":2,
			"componentType":5126,
			"count":1013,
			"type":"VEC2"
		},
		{
			"bufferView":3,
			"componentType":5123,
			"count":5424,
			"type":"SCALAR"
		},
		{
			"bufferView":4,
			"componentType":5126,
			"count":1070,
			"max":[
				0.7564585208892822,
				0.019448451697826385,
				1.0096447467803955
			],
			"min":[
				-0.7564585208892822,
				-0.022111807018518448,
				-1.0096447467803955
			],
			"type":"VEC3"
		},
		{
			"bufferView":5,
			"componentType":5126,
			"count":1070,
			"type":"VEC3"
		},
		{
			"bufferView":6,
			"componentType":5126,
			"count":1070,
			"type":"VEC2"
		},
		{
			"bufferView":7,
			"componentType":5126,
			"count":1070,
			"type":"VEC2"
		},
		{
			"bufferView":8,
			"componentType":5123,
			"count":5424,
			"type":"SCALAR"
		},
		{
			"bufferView":9,
			"componentType":5126,
			"count":1013,
			"max":[
				0.7564585208892822,
				0.019448451697826385,
				1.0096447467803955
			],
			"min":[
				-0.7564585208892822,
				-0.022111807018518448,
				-1.0096447467803955
			],
			"type":"VEC3"
		},
		{
			"bufferView":10,
			"componentType":5126,
			"count":1013,
			"type":"VEC3"
		},
		{
			"bufferView":11,
			"componentType":5126,
			"count":1013,
			"type":"VEC2"
		},
		{
			"bufferView":12,
			"componentType":5126,
			"count":2306850,
			"max":[
				0.8281115889549255,
				0.0657220259308815,
				1.1126939058303833
			],
			"min":[
				-0.828515887260437,
				-0.06518500298261642,
				-1.1133496761322021
			],
			"type":"VEC3"
		},
		{
			"bufferView":13,
			"componentType":5126,
			"count":2306850,
			"type":"VEC3"
		},
		{
			"bufferView":14,
			"componentType":5126,
			"count":2306850,
			"type":"VEC2"
		},
		{
			"bufferView":15,
			"componentType":5125,
			"count":12579840,
			"type":"SCALAR"
		},
		{
			"bufferView":16,
			"componentType":5126,
			"count":240240,
			"max":[
				0.824655294418335,
				0.0641973614692688,
				1.1089903116226196
			],
			"min":[
				-0.8244547843933105,
				-0.06447915732860565,
				-1.1096512079238892
			],
			"type":"VEC3"
		},
		{
			"bufferView":17,
			"componentType":5126,
			"count":240240,
			"type":"VEC3"
		},
		{
			"bufferView":18,
			"componentType":5126,
			"count":240240,
			"type":"VEC2"
		},
		{
			"bufferView":19,
			"componentType":5125,
			"count":1386840,
			"type":"SCALAR"
		},
		{
			"bufferView":20,
			"componentType":5126,
			"count":272,
			"max":[
				0.39548760652542114,
				0.0013175010681152344,
				0.14417938888072968
			],
			"min":[
				-1.6944754123687744,
				-2.7853000164031982,
				-0.3783113956451416
			],
			"type":"VEC3"
		},
		{
			"bufferView":21,
			"componentType":5126,
			"count":272,
			"type":"VEC3"
		},
		{
			"bufferView":22,
			"componentType":5126,
			"count":272,
			"type":"VEC2"
		},
		{
			"bufferView":23,
			"componentType":5126,
			"count":272,
			"type":"VEC2"
		},
		{
			"bufferView":24,
			"componentType":5123,
			"count":426,
			"type":"SCALAR"
		},
		{
			"bufferView":25,
			"componentType":5126,
			"count":64,
			"max":[
				0.3914356827735901,
				-0.004084944725036621,
				-0.21172836422920227
			],
			"min":[
				-1.6904234886169434,
				-2.779897689819336,
				-0.22630012035369873
			],
			"type":"VEC3"
		},
		{
			"bufferView":26,
			"componentType":5126,
			"count":64,
			"type":"VEC3"
		},
		{
			"bufferView":27,
			"componentType":5126,
			"count":64,
			"type":"VEC2"
		},
		{
			"bufferView":28,
			"componentType":5126,
			"count":64,
			"type":"VEC2"
		},
		{
			"bufferView":29,
			"componentType":5123,
			"count":96,
			"type":"SCALAR"
		},
		{
			"bufferView":30,
			"componentType":5126,
			"count":1600,
			"max":[
				0.3981770873069763,
				0.0014399290084838867,
				0.14459456503391266
			],
			"min":[
				-1.69716477394104,
				-2.7854223251342773,
				-0.38529670238494873
			],
			"type":"VEC3"
		},
		{
			"bufferView":31,
			"componentType":5126,
			"count":1600,
			"type":"VEC3"
		},
		{
			"bufferView":32,
			"componentType":5126,
			"count":1600,
			"type":"VEC2"
		},
		{
			"bufferView":33,
			"componentType":5126,
			"count":1600,
			"type":"VEC2"
		},
		{
			"bufferView":34,
			"componentType":5123,
			"count":2400,
			"type":"SCALAR"
		},
		{
			"bufferView":35,
			"componentType":5126,
			"count":6317,
			"max":[
				0.2157585620880127,
				0.00449371337890625,
				-0.00684000737965107
			],
			"min":[
				-1.5538971424102783,
				-2.7884387969970703,
				-0.11527334898710251
			],
			"type":"VEC3"
		},
		{
			"bufferView":36,
			"componentType":5126,
			"count":6317,
			"type":"VEC3"
		},
		{
			"bufferView":37,
			"componentType":5126,
			"count":6317,
			"type":"VEC2"
		},
		{
			"bufferView":38,
			"componentType":5126,
			"count":6317,
			"type":"VEC2"
		},
		{
			"bufferView":39,
			"componentType":5123,
			"count":18378,
			"type":"SCALAR"
		},
		{
			"bufferView":40,
			"componentType":5126,
			"count":16,
			"max":[
				0.39548760652542114,
				0.0013175010681152344,
				-0.37831127643585205
			],
			"min":[
				-1.6944754123687744,
				-2.7853000164031982,
				-0.3783113956451416
			],
			"type":"VEC3"
		},
		{
			"bufferView":41,
			"componentType":5126,
			"count":16,
			"type":"VEC3"
		},
		{
			"bufferView":42,
			"componentType":5126,
			"count":16,
			"type":"VEC2"
		},
		{
			"bufferView":43,
			"componentType":5126,
			"count":16,
			"type":"VEC2"
		},
		{
			"bufferView":44,
			"componentType":5123,
			"count":42,
			"type":"SCALAR"
		},
		{
			"bufferView":45,
			"componentType":5126,
			"count":2,
			"max":[
				2.5
			],
			"min":[
				0.041666666666666664
			],
			"type":"SCALAR"
		},
		{
			"bufferView":46,
			"componentType":5126,
			"count":2,
			"type":"VEC3"
		},
		{
			"bufferView":47,
			"componentType":5126,
			"count":2,
			"type":"VEC3"
		},
		{
			"bufferView":48,
			"componentType":5126,
			"count":60,
			"max":[
				2.5
			],
			"min":[
				0.041666666666666664
			],
			"type":"SCALAR"
		},
		{
			"bufferView":49,
			"componentType":5126,
			"count":60,
			"type":"VEC3"
		},
		{
			"bufferView":50,
			"componentType":5126,
			"count":2,
			"type":"VEC3"
		},
		{
			"bufferView":51,
			"componentType":5126,
			"count":60,
			"type":"VEC3"
		},
		{
			"bufferView":52,
			"componentType":5126,
			"count":2,
			"type":"VEC3"
		},
		{
			"bufferView":53,
			"componentType":5126,
			"count":60,
			"type":"VEC3"
		},
		{
			"bufferView":54,
			"componentType":5126,
			"count":2,
			"type":"VEC3"
		},
		{
			"bufferView":55,
			"componentType":5126,
			"count":60,
			"type":"VEC3"
		},
		{
			"bufferView":56,
			"componentType":5126,
			"count":60,
			"type":"VEC3"
		}
	],
	"bufferViews":[
		{
			"buffer":0,
			"byteLength":12156,
			"byteOffset":0,
			"target":34962
		},
		{
			"buffer":0,
			"byteLength":12156,
			"byteOffset":12156,
			"target":34962
		},
		{
			"buffer":0,
			"byteLength":8104,
			"byteOffset":24312,
			"target":34962
		},
		{
			"buffer":0,
			"byteLength":10848,
			"byteOffset":32416,
			"target":34963
		},
		{
			"buffer":0,
			"byteLength":12840,
			"byteOffset":43264,
			"target":34962
		},
		{
			"buffer":0,
			"byteLength":12840,
			"byteOffset":56104,
			"target":34962
		},
		{
			"buffer":0,
			"byteLength":8560,
			"byteOffset":68944,
			"target":34962
		},
		{
			"buffer":0,
			"byteLength":8560,
			"byteOffset":77504,
			"target":34962
		},
		{
			"buffer":0,
			"byteLength":10848,
			"byteOffset":86064,
			"target":34963
		},
		{
			"buffer":0,
			"byteLength":12156,
			"byteOffset":96912,
			"target":34962
		},
		{
			"buffer":0,
			"byteLength":12156,
			"byteOffset":109068,
			"target":34962
		},
		{
			"buffer":0,
			"byteLength":8104,
			"byteOffset":121224,
			"target":34962
		},
		{
			"buffer":0,
			"byteLength":27682200,
			"byteOffset":129328,
			"target":34962
		},
		{
			"buffer":0,
			"byteLength":27682200,
			"byteOffset":27811528,
			"target":34962
		},
		{
			"buffer":0,
			"byteLength":18454800,
			"byteOffset":55493728,
			"target":34962
		},
		{
			"buffer":0,
			"byteLength":50319360,
			"byteOffset":73948528,
			"target":34963
		},
		{
			"buffer":0,
			"byteLength":2882880,
			"byteOffset":124267888,
			"target":34962
		},
		{
			"buffer":0,
			"byteLength":2882880,
			"byteOffset":127150768,
			"target":34962
		},
		{
			"buffer":0,
			"byteLength":1921920,
			"byteOffset":130033648,
			"target":34962
		},
		{
			"buffer":0,
			"byteLength":5547360,
			"byteOffset":131955568,
			"target":34963
		},
		{
			"buffer":0,
			"byteLength":3264,
			"byteOffset":137502928,
			"target":34962
		},
		{
			"buffer":0,
			"byteLength":3264,
			"byteOffset":137506192,
			"target":34962
		},
		{
			"buffer":0,
			"byteLength":2176,
			"byteOffset":137509456,
			"target":34962
		},
		{
			"buffer":0,
			"byteLength":2176,
			"byteOffset":137511632,
			"target":34962
		},
		{
			"buffer":0,
			"byteLength":852,
			"byteOffset":137513808,
			"target":34963
		},
		{
			"buffer":0,
			"byteLength":768,
			"byteOffset":137514660,
			"target":34962
		},
		{
			"buffer":0,
			"byteLength":768,
			"byteOffset":137515428,
			"target":34962
		},
		{
			"buffer":0,
			"byteLength":512,
			"byteOffset":137516196,
			"target":34962
		},
		{
			"buffer":0,
			"byteLength":512,
			"byteOffset":137516708,
			"target":34962
		},
		{
			"buffer":0,
			"byteLength":192,
			"byteOffset":137517220,
			"target":34963
		},
		{
			"buffer":0,
			"byteLength":19200,
			"byteOffset":137517412,
			"target":34962
		},
		{
			"buffer":0,
			"byteLength":19200,
			"byteOffset":137536612,
			"target":34962
		},
		{
			"buffer":0,
			"byteLength":12800,
			"byteOffset":137555812,
			"target":34962
		},
		{
			"buffer":0,
			"byteLength":12800,
			"byteOffset":137568612,
			"target":34962
		},
		{
			"buffer":0,
			"byteLength":4800,
			"byteOffset":137581412,
			"target":34963
		},
		{
			"buffer":0,
			"byteLength":75804,
			"byteOffset":137586212,
			"target":34962
		},
		{
			"buffer":0,
			"byteLength":75804,
			"byteOffset":137662016,
			"target":34962
		},
		{
			"buffer":0,
			"byteLength":50536,
			"byteOffset":137737820,
			"target":34962
		},
		{
			"buffer":0,
			"byteLength":50536,
			"byteOffset":137788356,
			"target":34962
		},
		{
			"buffer":0,
			"byteLength":36756,
			"byteOffset":137838892,
			"target":34963
		},
		{
			"buffer":0,
			"byteLength":192,
			"byteOffset":137875648,
			"target":34962
		},
		{
			"buffer":0,
			"byteLength":192,
			"byteOffset":137875840,
			"target":34962
		},
		{
			"buffer":0,
			"byteLength":128,
			"byteOffset":137876032,
			"target":34962
		},
		{
			"buffer":0,
			"byteLength":128,
			"byteOffset":137876160,
			"target":34962
		},
		{
			"buffer":0,
			"byteLength":84,
			"byteOffset":137876288,
			"target":34963
		},
		{
			"buffer":0,
			"byteLength":8,
			"byteOffset":137876372
		},
		{
			"buffer":0,
			"byteLength":24,
			"byteOffset":137876380
		},
		{
			"buffer":0,
			"byteLength":24,
			"byteOffset":137876404
		},
		{
			"buffer":0,
			"byteLength":240,
			"byteOffset":137876428
		},
		{
			"buffer":0,
			"byteLength":720,
			"byteOffset":137876668
		},
		{
			"buffer":0,
			"byteLength":24,
			"byteOffset":137877388
		},
		{
			"buffer":0,
			"byteLength":720,
			"byteOffset":137877412
		},
		{
			"buffer":0,
			"byteLength":24,
			"byteOffset":137878132
		},
		{
			"buffer":0,
			"byteLength":720,
			"byteOffset":137878156
		},
		{
			"buffer":0,
			"byteLength":24,
			"byteOffset":137878876
		},
		{
			"buffer":0,
			"byteLength":720,
			"byteOffset":137878900
		},
		{
			"buffer":0,
			"byteLength":720,
			"byteOffset":137879620
		}
	],
	"samplers":[
		{
			"magFilter":9729,
			"minFilter":9987
		}
	],
	"buffers":[
		{
			"byteLength":137880340,
			"uri":"BAM_Build_Compressed.bin"
		}
	]
}
